<svg id="Layer_1" data-name="Layer 1" xmlns="http://www.w3.org/2000/svg" viewBox="0 0 369 870"><defs><style>.cls-1{fill:#f37742;}.cls-2{fill:#fff;}.cls-3{fill:none;stroke:#444;stroke-miterlimit:10;stroke-width:25px;}</style></defs><title>TowerArt</title><path class="cls-1" d="M116.25,368.78a19.35,19.35,0,0,1-13.79-5.72L5.94,266.54A19.35,19.35,0,0,1,.22,252.75V116.25a19.35,19.35,0,0,1,5.72-13.79L102.46,5.94A19.35,19.35,0,0,1,116.25.22h136.5a19.35,19.35,0,0,1,13.79,5.72l96.52,96.52a19.35,19.35,0,0,1,5.72,13.79v136.5a19.35,19.35,0,0,1-5.72,13.79l-96.52,96.52a19.35,19.35,0,0,1-13.79,5.72Z"/><path class="cls-2" d="M252.75.72a18.88,18.88,0,0,1,13.44,5.57l96.52,96.52a18.88,18.88,0,0,1,5.57,13.44v136.5a18.88,18.88,0,0,1-5.57,13.44l-96.52,96.52a18.88,18.88,0,0,1-13.44,5.57H116.25a18.88,18.88,0,0,1-13.44-5.57L6.29,266.19A18.88,18.88,0,0,1,.72,252.75V116.25a18.88,18.88,0,0,1,5.57-13.44L102.81,6.29A18.88,18.88,0,0,1,116.25.72h136.5m0-1H116.25a20,20,0,0,0-14.14,5.86L5.58,102.11A20,20,0,0,0-.28,116.25v136.5a20,20,0,0,0,5.86,14.14l96.53,96.53a20,20,0,0,0,14.14,5.86h136.5a20,20,0,0,0,14.14-5.86l96.53-96.53a20,20,0,0,0,5.86-14.14V116.25a20,20,0,0,0-5.86-14.14L266.89,5.58A20,20,0,0,0,252.75-.28Z"/><path d="M252.75,14.72a5,5,0,0,1,3.54,1.47l96.52,96.52a4.9,4.9,0,0,1,1.47,3.54v136.5a5,5,0,0,1-1.47,3.54l-96.52,96.52a4.9,4.9,0,0,1-3.54,1.47H116.25a5,5,0,0,1-3.54-1.47L16.19,256.29a4.9,4.9,0,0,1-1.47-3.54V116.25a5,5,0,0,1,1.47-3.54l96.52-96.52a4.9,4.9,0,0,1,3.54-1.47h136.5m0-5H116.25a9.93,9.93,0,0,0-7.07,2.93L12.65,109.18a9.93,9.93,0,0,0-2.93,7.07v136.5a9.93,9.93,0,0,0,2.93,7.07l96.53,96.53a9.93,9.93,0,0,0,7.07,2.93h136.5a9.93,9.93,0,0,0,7.07-2.93l96.53-96.53a9.93,9.93,0,0,0,2.93-7.07V116.25a9.93,9.93,0,0,0-2.93-7.07L259.82,12.65a9.93,9.93,0,0,0-7.07-2.93Z"/><line class="cls-3" x1="184.5" y1="369.5" x2="184.5" y2="869.5"/></svg>