<svg id="Layer_1" data-name="Layer 1" xmlns="http://www.w3.org/2000/svg" viewBox="0 0 407.53 870.33"><defs><style>.cls-1{fill:none;stroke:#444;stroke-miterlimit:10;stroke-width:25px;}.cls-2{fill:#f37742;}.cls-3{fill:#fff;}</style></defs><title>TowerArt</title><line class="cls-1" x1="203.5" y1="287.5" x2="203.5" y2="870.5"/><path class="cls-2" d="M204,405.32a19.4,19.4,0,0,1-13.79-5.68L6.36,215.79a19.53,19.53,0,0,1,0-27.58L190.21,4.36a19.58,19.58,0,0,1,27.58,0L401.64,188.21a19.58,19.58,0,0,1,0,27.58L217.79,399.64A19.4,19.4,0,0,1,204,405.32Z"/><path class="cls-3" d="M204-.82a18.86,18.86,0,0,1,13.44,5.54L401.28,188.56a19.07,19.07,0,0,1,0,26.88L217.44,399.28a19.07,19.07,0,0,1-26.88,0L6.72,215.44a19.07,19.07,0,0,1,0-26.88L190.56,4.72A18.86,18.86,0,0,1,204-.82m0-1A19.92,19.92,0,0,0,189.86,4L6,187.86a20.05,20.05,0,0,0,0,28.28L189.86,400a20.06,20.06,0,0,0,28.28,0L402,216.14a20.05,20.05,0,0,0,0-28.28L218.14,4A19.92,19.92,0,0,0,204-1.82Z"/><path d="M204,13.18a5,5,0,0,1,3.54,1.44L391.38,198.46a5,5,0,0,1,0,7.08L207.54,389.38a5.07,5.07,0,0,1-7.08,0L16.62,205.54a5,5,0,0,1,0-7.08L200.46,14.62A5,5,0,0,1,204,13.18m0-5a9.92,9.92,0,0,0-7.07,2.9L13.08,194.93a10,10,0,0,0,0,14.14L196.93,392.92a10.07,10.07,0,0,0,14.14,0L394.92,209.07a10,10,0,0,0,0-14.14L211.07,11.08A9.92,9.92,0,0,0,204,8.18Z"/></svg>