<svg id="Layer_1" data-name="Layer 1" xmlns="http://www.w3.org/2000/svg" viewBox="0 0 407.53 1300.33"><defs><style>.cls-1{fill:none;stroke:#444;stroke-miterlimit:10;stroke-width:25px;}.cls-2{fill:#de3757;}</style></defs><title>TowerArt</title><line class="cls-1" x1="202.95" y1="289" x2="202.95" y2="1300.5"/><rect class="cls-2" x="53.45" y="53.5" width="300" height="300" rx="20" transform="translate(-84.31 203.46) rotate(-45)"/><path d="M203.45,14.68A4.94,4.94,0,0,1,207,16.12L390.83,200a5,5,0,0,1,0,7.08L207,390.88a5.06,5.06,0,0,1-7.07,0L16.06,207a5,5,0,0,1,0-7.08L199.91,16.12a5,5,0,0,1,3.54-1.44m0-5a10,10,0,0,0-7.08,2.9L12.53,196.43a10,10,0,0,0,0,14.14L196.37,394.42a10.08,10.08,0,0,0,14.15,0L394.36,210.57a10,10,0,0,0,0-14.14L210.52,12.58a10,10,0,0,0-7.07-2.9Z"/></svg>