<svg id="Layer_1" data-name="Layer 1" xmlns="http://www.w3.org/2000/svg" viewBox="0 0 369 1300"><defs><style>.cls-1{fill:#de3757;}.cls-2{fill:none;stroke:#444;stroke-miterlimit:10;stroke-width:25px;}</style></defs><title>TowerArt</title><path class="cls-1" d="M252.75.72H116.25a20,20,0,0,0-14.14,5.86L5.58,103.11A20,20,0,0,0-.28,117.25v136.5a20,20,0,0,0,5.86,14.14l96.53,96.53a20,20,0,0,0,14.14,5.86h136.5a20,20,0,0,0,14.14-5.86l96.53-96.53a20,20,0,0,0,5.86-14.14V117.25a20,20,0,0,0-5.86-14.14L266.89,6.58A20,20,0,0,0,252.75.72Z"/><path d="M252.75,15.72a5,5,0,0,1,3.54,1.47l96.52,96.52a4.9,4.9,0,0,1,1.47,3.54v136.5a5,5,0,0,1-1.47,3.54l-96.52,96.52a4.9,4.9,0,0,1-3.54,1.47H116.25a5,5,0,0,1-3.54-1.47L16.19,257.29a4.9,4.9,0,0,1-1.47-3.54V117.25a5,5,0,0,1,1.47-3.54l96.52-96.52a4.9,4.9,0,0,1,3.54-1.47h136.5m0-5H116.25a9.93,9.93,0,0,0-7.07,2.93L12.65,110.18a9.93,9.93,0,0,0-2.93,7.07v136.5a9.93,9.93,0,0,0,2.93,7.07l96.53,96.53a9.93,9.93,0,0,0,7.07,2.93h136.5a9.93,9.93,0,0,0,7.07-2.93l96.53-96.53a9.93,9.93,0,0,0,2.93-7.07V117.25a9.93,9.93,0,0,0-2.93-7.07L259.82,13.65a9.93,9.93,0,0,0-7.07-2.93Z"/><line class="cls-2" x1="184.5" y1="370.5" x2="184.5" y2="1300.5"/></svg>