<svg id="Layer_1" data-name="Layer 1" xmlns="http://www.w3.org/2000/svg" viewBox="0 0 424 1300"><defs><style>.cls-1{fill:#de3757;}.cls-2{fill:none;stroke:#444;stroke-miterlimit:10;stroke-width:25px;}</style></defs><title>TowerArt</title><path class="cls-1" d="M195.36,10,2.7,343.64a19.34,19.34,0,0,0,16.75,29H404.76a19.34,19.34,0,0,0,16.74-29L228.85,10A19.34,19.34,0,0,0,195.36,10Z"/><path d="M212.1,15.29a4.14,4.14,0,0,1,3.76,2.17L408.51,351.14a4.34,4.34,0,0,1-3.75,6.51H19.45a4.34,4.34,0,0,1-3.75-6.51L208.35,17.46a4.14,4.14,0,0,1,3.75-2.17m0-5A9.17,9.17,0,0,0,204,15L11.37,348.64a9.33,9.33,0,0,0,8.08,14H404.76a9.34,9.34,0,0,0,8.08-14L220.19,15a9.18,9.18,0,0,0-8.09-4.67Z"/><line class="cls-2" x1="218.5" y1="372.5" x2="218.5" y2="1301"/></svg>