<svg id="Layer_1" data-name="Layer 1" xmlns="http://www.w3.org/2000/svg" viewBox="0 0 424 1300"><defs><style>.cls-1{fill:#f37742;}.cls-2{fill:#fff;}.cls-3{fill:none;stroke:#444;stroke-miterlimit:10;stroke-width:25px;}</style></defs><title>TowerArt</title><path class="cls-1" d="M19.45,372.15A18.84,18.84,0,0,1,3.14,343.89L195.79,10.21a18.84,18.84,0,0,1,32.63,0L421.07,343.89a18.84,18.84,0,0,1-16.31,28.26Z"/><path class="cls-2" d="M212.1,1.29A18.17,18.17,0,0,1,228,10.46L420.64,344.14a18.34,18.34,0,0,1-15.88,27.51H19.45A18.34,18.34,0,0,1,3.57,344.14L196.22,10.46A18.16,18.16,0,0,1,212.1,1.29m0-1A19.14,19.14,0,0,0,195.36,10L2.7,343.64a19.34,19.34,0,0,0,16.75,29H404.76a19.34,19.34,0,0,0,16.74-29L228.85,10A19.14,19.14,0,0,0,212.1.29Z"/><path d="M212.1,15.29a4.14,4.14,0,0,1,3.76,2.17L408.51,351.14a4.34,4.34,0,0,1-3.75,6.51H19.45a4.34,4.34,0,0,1-3.75-6.51L208.35,17.46a4.14,4.14,0,0,1,3.75-2.17m0-5A9.17,9.17,0,0,0,204,15L11.37,348.64a9.33,9.33,0,0,0,8.08,14H404.76a9.34,9.34,0,0,0,8.08-14L220.19,15a9.18,9.18,0,0,0-8.09-4.67Z"/><line class="cls-3" x1="218.5" y1="372.5" x2="218.5" y2="1301"/></svg>