<svg id="Layer_1" data-name="Layer 1" xmlns="http://www.w3.org/2000/svg" viewBox="0 0 407.53 870.33"><defs><style>.cls-1{fill:none;stroke:#444;stroke-miterlimit:10;stroke-width:25px;}.cls-2{fill:#7dc649;}</style></defs><title>TowerArt</title><line class="cls-1" x1="203.47" y1="289" x2="203.47" y2="872"/><rect class="cls-2" x="53.97" y="53.5" width="300" height="300" rx="20" transform="translate(-84.15 203.83) rotate(-45)"/><path d="M204,14.68a5,5,0,0,1,3.54,1.44L391.36,200a5,5,0,0,1,0,7.08L207.51,390.88a5.06,5.06,0,0,1-7.07,0L16.59,207a5,5,0,0,1,0-7.08L200.44,16.12A4.94,4.94,0,0,1,204,14.68m0-5a9.94,9.94,0,0,0-7.07,2.9L13.05,196.43a10,10,0,0,0,0,14.14L196.9,394.42a10.07,10.07,0,0,0,14.14,0L394.89,210.57a10,10,0,0,0,0-14.14L211,12.58A9.92,9.92,0,0,0,204,9.68Z"/></svg>