<svg id="Layer_1" data-name="Layer 1" xmlns="http://www.w3.org/2000/svg" viewBox="0 0 369 870"><defs><style>.cls-1{fill:#7dc649;}.cls-2{fill:none;stroke:#444;stroke-miterlimit:10;stroke-width:25px;}</style></defs><title>TowerArt</title><path class="cls-1" d="M253.23-.28H116.72a20,20,0,0,0-14.14,5.86L6.05,102.11A20,20,0,0,0,.2,116.25v136.5a20,20,0,0,0,5.85,14.14l96.53,96.53a20,20,0,0,0,14.14,5.86H253.23a20,20,0,0,0,14.14-5.86l96.52-96.53a20,20,0,0,0,5.86-14.14V116.25a20,20,0,0,0-5.86-14.14L267.37,5.58A20,20,0,0,0,253.23-.28Z"/><path d="M253.23,14.72a4.94,4.94,0,0,1,3.53,1.47l96.52,96.52a4.9,4.9,0,0,1,1.47,3.54v136.5a5,5,0,0,1-1.47,3.54l-96.52,96.52a4.9,4.9,0,0,1-3.53,1.47H116.72a4.92,4.92,0,0,1-3.53-1.47L16.66,256.29a4.89,4.89,0,0,1-1.46-3.54V116.25a5,5,0,0,1,1.46-3.54l96.52-96.52a4.92,4.92,0,0,1,3.54-1.47H253.23m0-5H116.72a9.93,9.93,0,0,0-7.07,2.93L13.13,109.18a9.93,9.93,0,0,0-2.93,7.07v136.5a9.93,9.93,0,0,0,2.93,7.07l96.52,96.53a9.93,9.93,0,0,0,7.07,2.93H253.23a9.93,9.93,0,0,0,7.07-2.93l96.52-96.53a9.93,9.93,0,0,0,2.93-7.07V116.25a9.93,9.93,0,0,0-2.93-7.07L260.3,12.65a9.93,9.93,0,0,0-7.07-2.93Z"/><line class="cls-2" x1="184.97" y1="369.5" x2="184.97" y2="869.5"/></svg>