<svg id="Layer_1" data-name="Layer 1" xmlns="http://www.w3.org/2000/svg" viewBox="0 0 2560 1600"><defs><style>.cls-1,.cls-2,.cls-3,.cls-4{fill:none;}.cls-1,.cls-4,.cls-7{stroke:#7f7f7f;}.cls-1,.cls-2,.cls-3,.cls-4,.cls-5,.cls-6,.cls-7{stroke-miterlimit:10;}.cls-1,.cls-7{stroke-width:15px;}.cls-2,.cls-3,.cls-5,.cls-6{stroke:#000;}.cls-2{stroke-width:6px;}.cls-3,.cls-5{stroke-width:3.74px;}.cls-4{stroke-width:16.7px;}.cls-6{fill:#666;stroke-width:6.51px;}.cls-7{fill:#fff;}.cls-8{fill:#74ccd9;}</style></defs><title>TowerArt</title><line class="cls-1" x1="2409.5" y1="229.5" x2="2326.5" y2="146.5"/><line class="cls-2" x1="1701.5" y1="0.5" x2="2326.5" y2="147.5"/><line class="cls-1" x1="2263.5" y1="233.5" x2="2326.5" y2="146.5"/><line class="cls-1" x1="2219.72" y1="360.19" x2="813.75" y2="-182.43"/><polyline class="cls-1" points="2219.84 358.88 2189.5 218.5 1412.27 -81.57"/><line class="cls-1" x1="2083.26" y1="306.91" x2="2189.69" y2="219.18"/><line class="cls-1" x1="2083.62" y1="303.93" x2="2053.48" y2="163.23"/><line class="cls-1" x1="1947.04" y1="250.96" x2="2053.48" y2="163.23"/><line class="cls-1" x1="1945.06" y1="250.72" x2="1914.91" y2="110.02"/><line class="cls-1" x1="1808.48" y1="197.75" x2="1914.91" y2="110.02"/><line class="cls-1" x1="1804.51" y1="197.26" x2="1774.36" y2="56.56"/><line class="cls-1" x1="1667.93" y1="144.29" x2="1774.36" y2="56.56"/><line class="cls-1" x1="1667.93" y1="144.29" x2="1637.78" y2="3.59"/><line class="cls-1" x1="1531.35" y1="91.32" x2="1637.78" y2="3.59"/><line class="cls-1" x1="1529.24" y1="92.07" x2="1499.1" y2="-48.63"/><line class="cls-1" x1="1392.66" y1="39.1" x2="1499.1" y2="-48.63"/><line class="cls-1" x1="1393.89" y1="37.24" x2="1363.75" y2="-103.46"/><line class="cls-2" x1="2327" y1="147" x2="2559.5" y2="220.5"/><line class="cls-1" x1="2457" y1="251.5" x2="2570" y2="251.5"/><line class="cls-1" x1="2569.5" y1="377" x2="2457.5" y2="252"/><line class="cls-1" x1="2253.37" y1="1817.44" x2="2253.37" y2="409.71"/><line class="cls-1" x1="2403" y1="1818" x2="2403" y2="410.27"/><line class="cls-3" x1="2253.37" y1="410.41" x2="2403" y2="410.41"/><line class="cls-4" x1="2253.37" y1="554.52" x2="2403" y2="414.46"/><line class="cls-4" x1="2252.37" y1="412.86" x2="2402" y2="552.92"/><polygon class="cls-5" points="2255 401 2253 411 2403 411 2400 401 2255 401"/><line class="cls-3" x1="2255" y1="395" x2="2400" y2="395"/><path class="cls-6" d="M2248.35,244.3l-39,129.58a16.39,16.39,0,0,0,15.7,21.12h212.42A16.52,16.52,0,0,0,2454,378.48V233.81a13.1,13.1,0,0,0-13.79-13.09l-173.32,9A20.47,20.47,0,0,0,2248.35,244.3Z"/><line class="cls-4" x1="2254.37" y1="699.59" x2="2404" y2="559.52"/><line class="cls-4" x1="2253.37" y1="557.92" x2="2403" y2="697.99"/><line class="cls-4" x1="2254.37" y1="848.38" x2="2404" y2="708.31"/><line class="cls-4" x1="2253.37" y1="706.71" x2="2403" y2="846.77"/><line class="cls-4" x1="2254.37" y1="997.16" x2="2404" y2="857.1"/><line class="cls-4" x1="2253.37" y1="855.49" x2="2403" y2="995.56"/><line class="cls-4" x1="2254.37" y1="1144.71" x2="2404" y2="1004.64"/><line class="cls-4" x1="2253.37" y1="1003.04" x2="2403" y2="1143.11"/><line class="cls-4" x1="2253.37" y1="1291.01" x2="2403" y2="1150.95"/><line class="cls-4" x1="2252.37" y1="1149.35" x2="2402" y2="1289.41"/><line class="cls-4" x1="2254.37" y1="1436.08" x2="2404" y2="1296.01"/><line class="cls-4" x1="2253.37" y1="1294.41" x2="2403" y2="1434.48"/><line class="cls-4" x1="2253.37" y1="1583.63" x2="2403" y2="1443.56"/><line class="cls-4" x1="2252.37" y1="1441.96" x2="2402" y2="1582.03"/><line class="cls-4" x1="2253.37" y1="1729.93" x2="2403" y2="1589.87"/><line class="cls-4" x1="2252.37" y1="1588.27" x2="2402" y2="1728.33"/><circle class="cls-7" cx="2327" cy="147" r="33.5"/><line class="cls-1" x1="2459" y1="377" x2="2572" y2="377"/><path class="cls-8" d="M2395.5,361H2249.93a15.22,15.22,0,0,1-14.65-19.37l26.34-87a15.22,15.22,0,0,1,13.42-11l119.24-5.82A15.21,15.21,0,0,1,2410.72,253v92.78A15.21,15.21,0,0,1,2395.5,361Z"/></svg>