<svg id="Layer_1" data-name="Layer 1" xmlns="http://www.w3.org/2000/svg" viewBox="0 0 595 735"><defs><style>.cls-1{fill:#fff;stroke-width:1.04px;}.cls-1,.cls-2,.cls-3,.cls-4{stroke:#000;stroke-miterlimit:10;}.cls-2{fill:none;}.cls-3{stroke-width:0.85px;}</style></defs><title>TowerArt</title><rect class="cls-1" x="-0.5" y="357.5" width="596" height="377"/><line class="cls-2" x1="1" y1="374.5" x2="596" y2="374.5"/><line class="cls-2" x1="60.5" y1="364.5" x2="60.5" y2="0.5"/><polyline class="cls-3" points="1 374.39 22.2 359.07 24.39 357.5 52.31 357.5 30.09 373.55 28.97 374.35"/><polyline class="cls-3" points="61 374.39 82.2 359.07 84.39 357.5 112.31 357.5 90.09 373.55 88.97 374.35"/><polyline class="cls-3" points="121 374.39 142.21 359.07 144.39 357.5 172.31 357.5 150.09 373.55 148.97 374.35"/><polyline class="cls-3" points="181 374.39 202.21 359.07 204.39 357.5 232.31 357.5 210.09 373.55 208.97 374.35"/><polyline class="cls-3" points="241 374.39 262.2 359.07 264.39 357.5 292.31 357.5 270.09 373.55 268.97 374.35"/><polyline class="cls-3" points="301 374.39 322.2 359.07 324.39 357.5 352.31 357.5 330.09 373.55 328.97 374.35"/><polyline class="cls-3" points="361 374.39 382.2 359.07 384.39 357.5 412.31 357.5 390.09 373.55 388.97 374.35"/><polyline class="cls-3" points="421 374.39 442.2 359.07 444.39 357.5 472.31 357.5 450.09 373.55 448.97 374.35"/><polyline class="cls-3" points="481 374.39 502.2 359.07 504.39 357.5 532.31 357.5 510.09 373.55 508.97 374.35"/><polyline class="cls-3" points="541 374.39 562.21 359.07 564.39 357.5 592.31 357.5 570.09 373.55 568.97 374.35"/><rect class="cls-4" x="56.5" y="360.5" width="7" height="7" rx="3.5"/><line class="cls-2" x1="536.5" y1="364.5" x2="536.5" y2="0.5"/><rect class="cls-4" x="532.5" y="360.5" width="7" height="7" rx="3.5"/><line class="cls-2" x1="1" y1="734.5" x2="596" y2="734.5"/><polyline class="cls-3" points="1 734.39 22.2 719.08 24.39 717.5 52.31 717.5 30.09 733.54 28.97 734.35"/><polyline class="cls-3" points="61 734.39 82.2 719.08 84.39 717.5 112.31 717.5 90.09 733.54 88.97 734.35"/><polyline class="cls-3" points="121 734.39 142.21 719.08 144.39 717.5 172.31 717.5 150.09 733.54 148.97 734.35"/><polyline class="cls-3" points="181 734.39 202.21 719.08 204.39 717.5 232.31 717.5 210.09 733.54 208.97 734.35"/><polyline class="cls-3" points="241 734.39 262.2 719.08 264.39 717.5 292.31 717.5 270.09 733.54 268.97 734.35"/><polyline class="cls-3" points="301 734.39 322.2 719.08 324.39 717.5 352.31 717.5 330.09 733.54 328.97 734.35"/><polyline class="cls-3" points="361 734.39 382.2 719.08 384.39 717.5 412.31 717.5 390.09 733.54 388.97 734.35"/><polyline class="cls-3" points="421 734.39 442.2 719.08 444.39 717.5 472.31 717.5 450.09 733.54 448.97 734.35"/><polyline class="cls-3" points="481 734.39 502.2 719.08 504.39 717.5 532.31 717.5 510.09 733.54 508.97 734.35"/><polyline class="cls-3" points="541 734.39 562.21 719.08 564.39 717.5 592.31 717.5 570.09 733.54 568.97 734.35"/><line class="cls-2" y1="717.5" x2="595" y2="717.5"/></svg>