<svg id="Layer_1" data-name="Layer 1" xmlns="http://www.w3.org/2000/svg" viewBox="0 0 597 1838.4"><defs><style>.cls-1{fill:#fff;stroke-width:1.04px;}.cls-1,.cls-2,.cls-3,.cls-4{stroke:#000;stroke-miterlimit:10;}.cls-2{fill:none;}.cls-3{stroke-width:0.85px;}</style></defs><title>TowerArt</title><rect class="cls-1" x="0.5" y="1460.9" width="596" height="377"/><line class="cls-2" x1="2" y1="1477.9" x2="597" y2="1477.9"/><line class="cls-2" x1="61.5" y1="1467.9" x2="61.5" y2="0.9"/><polyline class="cls-3" points="2 1477.79 23.2 1462.47 25.39 1460.9 53.31 1460.9 31.09 1476.94 29.97 1477.75"/><polyline class="cls-3" points="62 1477.79 83.2 1462.47 85.39 1460.9 113.31 1460.9 91.09 1476.94 89.97 1477.75"/><polyline class="cls-3" points="122 1477.79 143.21 1462.47 145.39 1460.9 173.31 1460.9 151.09 1476.94 149.97 1477.75"/><polyline class="cls-3" points="182 1477.79 203.21 1462.47 205.39 1460.9 233.31 1460.9 211.09 1476.94 209.97 1477.75"/><polyline class="cls-3" points="242 1477.79 263.2 1462.47 265.39 1460.9 293.31 1460.9 271.09 1476.94 269.97 1477.75"/><polyline class="cls-3" points="302 1477.79 323.2 1462.47 325.39 1460.9 353.31 1460.9 331.09 1476.94 329.97 1477.75"/><polyline class="cls-3" points="362 1477.79 383.2 1462.47 385.39 1460.9 413.31 1460.9 391.09 1476.94 389.97 1477.75"/><polyline class="cls-3" points="422 1477.79 443.2 1462.47 445.39 1460.9 473.31 1460.9 451.09 1476.94 449.97 1477.75"/><polyline class="cls-3" points="482 1477.79 503.2 1462.47 505.39 1460.9 533.31 1460.9 511.09 1476.94 509.97 1477.75"/><polyline class="cls-3" points="542 1477.79 563.21 1462.47 565.39 1460.9 593.31 1460.9 571.09 1476.94 569.97 1477.75"/><rect class="cls-4" x="57.5" y="1463.9" width="7" height="7" rx="3.5"/><line class="cls-2" x1="537.5" y1="1467.9" x2="537.5" y2="0.4"/><rect class="cls-4" x="533.5" y="1463.9" width="7" height="7" rx="3.5"/><line class="cls-2" x1="2" y1="1837.9" x2="597" y2="1837.9"/><polyline class="cls-3" points="2 1837.79 23.2 1822.47 25.39 1820.9 53.31 1820.9 31.09 1836.94 29.97 1837.75"/><polyline class="cls-3" points="62 1837.79 83.2 1822.47 85.39 1820.9 113.31 1820.9 91.09 1836.94 89.97 1837.75"/><polyline class="cls-3" points="122 1837.79 143.21 1822.47 145.39 1820.9 173.31 1820.9 151.09 1836.94 149.97 1837.75"/><polyline class="cls-3" points="182 1837.79 203.21 1822.47 205.39 1820.9 233.31 1820.9 211.09 1836.94 209.97 1837.75"/><polyline class="cls-3" points="242 1837.79 263.2 1822.47 265.39 1820.9 293.31 1820.9 271.09 1836.94 269.97 1837.75"/><polyline class="cls-3" points="302 1837.79 323.2 1822.47 325.39 1820.9 353.31 1820.9 331.09 1836.94 329.97 1837.75"/><polyline class="cls-3" points="362 1837.79 383.2 1822.47 385.39 1820.9 413.31 1820.9 391.09 1836.94 389.97 1837.75"/><polyline class="cls-3" points="422 1837.79 443.2 1822.47 445.39 1820.9 473.31 1820.9 451.09 1836.94 449.97 1837.75"/><polyline class="cls-3" points="482 1837.79 503.2 1822.47 505.39 1820.9 533.31 1820.9 511.09 1836.94 509.97 1837.75"/><polyline class="cls-3" points="542 1837.79 563.21 1822.47 565.39 1820.9 593.31 1820.9 571.09 1836.94 569.97 1837.75"/><line class="cls-2" x1="1" y1="1820.9" x2="596" y2="1820.9"/></svg>